<?xml version="1.0" standalone="no"?>
<!DOCTYPE svg PUBLIC "-//W3C//DTD SVG 20010904//EN"
 "http://www.w3.org/TR/2001/REC-SVG-20010904/DTD/svg10.dtd">
<svg version="1.0" xmlns="http://www.w3.org/2000/svg"
 width="612.000000pt" height="612.000000pt" viewBox="0 0 612.000000 612.000000"
 preserveAspectRatio="xMidYMid meet">

<g transform="translate(0.000000,612.000000) scale(0.100000,-0.100000)"
fill="#000000" stroke="none">
<path d="M2742 5459 c-15 -5 -21 -13 -16 -21 4 -7 4 -10 -1 -6 -5 5 -24 -4
-43 -19 -19 -14 -55 -30 -80 -34 -41 -8 -148 -67 -197 -109 -11 -9 -72 -36
-135 -60 -535 -200 -947 -555 -1220 -1050 -194 -351 -292 -767 -277 -1170 15
-373 106 -704 285 -1027 l56 -102 47 135 c55 157 101 259 132 293 56 60 200
147 357 215 36 16 108 50 160 76 52 26 113 53 135 60 22 7 65 25 95 40 30 15
86 37 123 50 85 28 113 51 173 146 86 133 107 158 157 182 65 31 74 54 58 150
-9 52 -24 98 -49 142 -19 36 -43 79 -52 95 -40 75 -52 87 -82 81 -72 -14 -144
56 -168 166 -12 53 -11 60 15 129 l28 72 -32 29 c-31 28 -31 28 -15 61 11 20
16 51 15 83 -1 28 3 63 9 78 9 24 8 27 -5 22 -24 -9 -19 116 6 170 11 23 22
63 24 89 3 30 13 57 25 70 13 14 20 35 20 62 0 46 31 86 52 65 24 -24 63 -13
102 27 21 22 50 42 64 46 14 3 43 21 64 40 47 40 102 68 106 55 2 -6 10 -10
17 -10 7 0 16 -8 20 -17 7 -16 9 -15 14 5 l6 23 22 -20 c14 -13 23 -16 25 -9
3 7 10 8 17 4 7 -5 10 -14 7 -22 -3 -8 1 -13 12 -12 54 4 91 -4 114 -25 14
-13 30 -21 36 -19 7 2 15 -10 18 -27 4 -17 10 -28 14 -26 5 3 10 -1 13 -7 3
-10 7 -10 19 -1 11 10 17 10 27 0 9 -9 14 -9 22 3 8 11 9 9 3 -10 -9 -33 -11
-35 -27 -22 -18 16 -30 3 -15 -16 10 -11 9 -17 -5 -27 -11 -8 -15 -19 -11 -29
5 -13 2 -17 -11 -14 -13 2 -22 -8 -32 -40 -19 -55 -43 -68 -97 -51 -23 7 -47
17 -55 23 -23 18 -122 12 -161 -9 -19 -10 -89 -37 -155 -59 -113 -39 -120 -43
-126 -71 -4 -16 -7 -24 -8 -17 0 7 -5 11 -11 7 -5 -3 -6 -15 -1 -28 9 -24 4
-47 -10 -47 -5 0 -9 7 -9 15 0 8 -5 15 -10 15 -7 0 -8 -13 -5 -34 6 -30 2 -39
-43 -89 -46 -50 -70 -92 -60 -103 8 -8 50 29 58 52 5 13 27 32 48 43 41 21 63
51 37 51 -8 0 -15 4 -15 9 0 17 46 76 60 76 8 0 23 -22 33 -50 49 -128 66
-155 110 -175 76 -35 227 -20 296 30 29 20 31 20 31 3 1 -10 14 7 30 37 25 48
37 86 56 178 8 38 61 22 68 -21 1 -8 8 -22 15 -31 7 -9 11 -26 8 -38 -4 -14 0
-26 11 -34 13 -10 15 -17 6 -31 -8 -14 -7 -22 8 -37 22 -24 23 -52 3 -60 -10
-4 -15 -20 -15 -51 0 -26 -5 -45 -11 -45 -6 0 -9 -9 -6 -19 4 -15 -3 -24 -28
-35 -18 -9 -37 -16 -43 -16 -14 0 -36 -29 -28 -37 4 -4 22 -6 41 -5 38 3 46
-4 35 -34 -8 -20 -73 -56 -202 -113 -47 -20 -48 -20 -48 -1 0 11 14 35 30 53
30 35 40 57 18 40 -7 -6 -20 -13 -30 -16 -15 -5 -14 -1 3 38 10 24 19 58 19
77 -1 18 2 61 6 96 3 34 3 62 0 62 -10 0 -79 -52 -93 -70 -6 -8 -9 -18 -6 -23
2 -4 -9 -26 -26 -49 -17 -23 -31 -49 -31 -57 0 -9 -7 -34 -14 -56 -18 -52 -25
-157 -9 -142 6 7 11 0 57 -88 31 -60 54 -90 61 -83 9 9 18 50 19 88 2 54 10
61 52 44 39 -16 101 -15 96 1 -2 6 -14 9 -27 7 -16 -2 -27 4 -35 18 -12 23 -6
40 15 40 8 0 17 11 21 25 5 20 11 24 26 19 10 -3 25 0 33 6 8 7 21 10 29 7 8
-3 17 0 20 8 4 11 13 12 36 5 21 -6 40 -5 56 2 19 9 30 9 43 1 13 -8 21 -9 29
-1 8 8 15 8 26 -1 11 -10 16 -9 24 5 12 22 29 11 37 -26 8 -38 -1 -55 -22 -39
-10 9 -17 9 -21 2 -7 -11 -51 -23 -92 -26 -14 -1 -27 -5 -30 -8 -3 -3 -14 -11
-25 -18 -16 -9 -10 -10 36 -5 l56 6 -1 -29 c-1 -24 -5 -28 -30 -28 -18 0 -33
-7 -40 -20 -6 -11 -23 -40 -38 -64 -16 -25 -28 -50 -28 -57 0 -7 25 -20 55
-29 48 -13 55 -19 55 -40 0 -14 -6 -25 -12 -25 -16 -1 -52 -76 -43 -90 3 -5
-3 -10 -14 -10 -21 0 -47 -35 -43 -57 2 -7 -4 -13 -13 -13 -8 0 -15 4 -15 9 0
5 -19 13 -42 20 -35 8 -45 8 -54 -4 -6 -8 -31 -20 -57 -26 -37 -10 -53 -10
-89 1 -24 8 -45 17 -48 21 -3 3 -23 9 -45 12 -37 6 -38 5 -20 -8 11 -8 25 -19
31 -24 6 -5 37 -24 68 -41 31 -18 59 -36 62 -41 3 -5 16 -9 28 -9 13 0 29 -7
36 -15 7 -9 35 -25 62 -37 38 -16 48 -25 48 -44 0 -30 37 -92 58 -98 10 -3 26
-21 36 -40 14 -26 16 -38 7 -54 -7 -14 -8 -23 -1 -27 16 -10 11 -25 -9 -25
-10 0 -25 -9 -32 -20 -8 -12 -25 -22 -39 -22 -14 -1 -30 -6 -37 -11 -7 -5 -16
-6 -21 -3 -10 6 -97 -38 -106 -53 -3 -4 -50 -7 -106 -6 -112 2 -113 2 -153 85
-14 30 -22 69 -24 115 -2 66 -4 70 -25 67 -13 -1 -42 -22 -66 -45 -40 -39 -43
-45 -37 -81 6 -44 33 -106 45 -106 4 0 10 28 13 61 3 34 11 66 17 73 9 8 11 4
6 -19 -3 -16 -8 -55 -12 -86 l-6 -56 74 -84 c126 -145 187 -199 224 -199 18 0
39 -3 48 -6 27 -10 18 11 -11 28 -19 10 -35 13 -50 7 -17 -6 -25 -3 -39 19 -9
15 -23 31 -31 35 -7 4 -13 13 -13 20 0 7 -14 25 -30 41 -60 59 -36 68 94 37
44 -11 85 -17 92 -14 7 2 23 -1 36 -8 14 -8 70 -14 142 -15 141 -3 176 -14
176 -55 0 -16 -4 -29 -9 -29 -5 0 -13 -9 -16 -20 -4 -13 -15 -20 -31 -20 -14
0 -22 -4 -19 -10 3 -6 -4 -10 -17 -10 l-23 -1 23 -12 23 -13 -23 -20 c-29 -26
-60 -21 -56 9 3 19 -3 23 -44 27 -27 3 -48 3 -48 -2 0 -4 -13 -6 -30 -5 -31 2
-39 12 -17 20 10 4 10 7 0 18 -16 17 -35 0 -39 -34 -2 -22 3 -26 38 -31 22 -4
59 -19 82 -35 46 -32 126 -115 126 -131 0 -29 30 -2 65 57 21 38 54 81 73 97
19 16 41 44 48 63 9 21 28 40 53 52 53 28 85 68 138 180 25 53 58 114 72 136
77 116 133 271 134 373 0 39 3 72 6 71 3 0 23 -22 44 -50 20 -27 44 -49 52
-49 8 0 33 -16 55 -36 22 -20 42 -35 44 -33 8 8 -42 57 -72 73 -55 28 -73 61
-67 125 8 93 14 134 29 176 8 22 12 48 11 57 -2 10 0 18 4 18 5 0 9 101 10
224 2 211 -3 274 -29 331 -7 18 -12 51 -24 185 -2 19 -9 88 -16 153 -7 65 -10
157 -8 204 5 85 -8 149 -35 181 -6 8 -11 71 -12 165 0 84 -4 158 -8 165 -5 6
-4 12 2 12 6 0 11 -4 11 -10 0 -13 27 -13 35 0 9 15 -12 38 -57 61 -34 17 -37
22 -31 49 5 29 5 30 -36 30 -30 0 -44 5 -53 20 -7 11 -20 20 -28 20 -13 0 -13
1 0 10 10 6 11 10 3 10 -8 0 -13 13 -13 30 0 34 -25 41 -46 13 -11 -17 -13
-16 -23 9 -13 34 -54 62 -80 53 -15 -4 -26 3 -45 32 -14 21 -26 43 -26 50 0 6
-4 14 -9 17 -17 11 -41 -6 -41 -28 -1 -21 -1 -21 -16 -1 -8 11 -18 25 -22 31
-4 6 -18 14 -32 17 -24 6 -25 5 -21 -40 l3 -46 -36 28 c-20 15 -34 21 -31 14
3 -8 -1 -23 -10 -34 -15 -19 -16 -19 -54 23 l-38 44 -104 9 c-127 10 -128 10
-157 -2z m-14 -82 c3 -21 -1 -27 -17 -27 -24 0 -32 19 -17 43 15 23 30 16 34
-16z m56 -123 c10 -25 -1 -29 -14 -5 -6 12 -7 21 -1 21 5 0 12 -7 15 -16z
m-271 -50 c-4 -11 -8 -12 -20 -3 -11 10 -11 14 -1 20 17 10 28 2 21 -17z m-83
-54 c0 -10 -41 -30 -58 -30 -10 1 39 40 49 40 5 0 9 -5 9 -10z m75 -100 c3 -5
1 -10 -4 -10 -6 0 -11 5 -11 10 0 6 2 10 4 10 3 0 8 -4 11 -10z m109 -25 c-4
-8 -11 -15 -16 -15 -6 0 -5 6 2 15 7 8 14 15 16 15 2 0 1 -7 -2 -15z m-286
-57 c-2 -15 -11 -24 -25 -26 -27 -4 -29 5 -6 30 22 24 35 23 31 -4z m77 -7 c5
-9 -39 -61 -51 -61 -7 0 6 42 18 58 12 14 25 16 33 3z m-50 -81 c3 -5 1 -10
-4 -10 -6 0 -11 5 -11 10 0 6 2 10 4 10 3 0 8 -4 11 -10z m-245 -138 c0 -5 -7
-17 -15 -28 -14 -19 -14 -19 -15 2 0 11 3 24 7 27 9 10 23 9 23 -1z m250 -97
c0 -8 -4 -15 -10 -15 -5 0 -10 7 -10 15 0 8 5 15 10 15 6 0 10 -7 10 -15z
m760 -25 c0 -5 -4 -10 -10 -10 -5 0 -10 5 -10 10 0 6 5 10 10 10 6 0 10 -4 10
-10z m-10 -30 c0 -5 -4 -10 -10 -10 -5 0 -10 5 -10 10 0 6 5 10 10 10 6 0 10
-4 10 -10z m382 -130 c14 -7 31 -24 38 -39 19 -39 24 -171 8 -200 -15 -29 -53
-57 -88 -66 -19 -4 -15 0 12 16 65 39 88 153 48 241 -14 30 -22 34 -95 54
l-50 13 50 -4 c28 -2 63 -9 77 -15z m-542 -75 c0 -8 -4 -15 -9 -15 -13 0 -22
16 -14 24 11 11 23 6 23 -9z m-101 -6 c69 -15 86 -37 85 -113 -2 -114 -58
-193 -154 -215 -67 -16 -186 -14 -219 4 -36 18 -69 93 -78 175 -5 54 -4 63 17
85 54 57 230 90 349 64z m461 -689 c0 -5 -5 -10 -11 -10 -5 0 -7 5 -4 10 3 6
8 10 11 10 2 0 4 -4 4 -10z m-176 -1462 c6 -4 7 -10 4 -14 -11 -10 -40 24 -32
38 6 9 9 8 12 -2 3 -8 10 -18 16 -22z"/>
<path d="M2695 4373 c-93 -14 -135 -38 -77 -45 40 -4 40 -38 0 -63 -35 -22
-75 -71 -66 -81 4 -3 15 4 25 17 40 50 64 70 80 67 9 -2 18 -7 19 -13 3 -11
-98 -85 -115 -85 -6 0 -11 -5 -11 -11 0 -6 7 -8 16 -5 9 3 27 6 40 6 15 0 24
6 24 15 0 8 5 15 10 15 6 0 10 -7 10 -15 0 -8 9 -15 20 -15 29 0 24 -18 -10
-38 -16 -9 -28 -21 -27 -27 5 -14 107 -31 115 -18 4 5 26 20 48 32 24 14 51
40 64 62 12 22 25 37 30 34 17 -11 22 80 7 117 -12 28 -22 37 -48 41 -61 11
-124 15 -154 10z"/>
<path d="M2896 4682 c-2 -4 1 -18 6 -32 7 -20 11 -22 18 -10 5 8 10 20 10 26
0 14 -27 27 -34 16z"/>
<path d="M2276 4174 c-4 -9 -4 -19 -1 -22 2 -3 7 3 11 12 4 9 4 19 1 22 -2 3
-7 -3 -11 -12z"/>
<path d="M2280 3991 c0 -5 5 -13 10 -16 6 -3 10 -2 10 4 0 5 -4 13 -10 16 -5
3 -10 2 -10 -4z"/>
<path d="M2945 3938 c-11 -6 -28 -19 -38 -29 -18 -17 -18 -17 4 -24 15 -5 26
-2 34 8 6 9 33 22 58 29 29 7 42 15 34 20 -18 11 -69 9 -92 -4z"/>
<path d="M2263 3789 c-35 -15 -43 -23 -43 -44 0 -15 5 -36 11 -47 9 -17 17
-19 49 -14 33 5 39 3 45 -17 6 -19 8 -20 12 -4 3 10 -2 28 -11 41 -8 13 -16
41 -18 63 l-3 40 -42 -18z"/>
<path d="M2370 3617 c0 -8 7 -21 16 -28 14 -11 15 -10 12 11 -3 26 -28 41 -28
17z"/>
<path d="M3028 3603 c7 -3 16 -2 19 1 4 3 -2 6 -13 5 -11 0 -14 -3 -6 -6z"/>
<path d="M2537 2993 c-4 -3 -7 -15 -7 -26 0 -16 3 -17 15 -7 8 7 15 19 15 26
0 15 -12 19 -23 7z"/>
<path d="M4030 2955 c58 -13 128 -26 155 -29 28 -3 -11 8 -85 24 -74 16 -144
29 -155 29 -11 -1 27 -12 85 -24z"/>
<path d="M4263 2913 c9 -2 23 -2 30 0 6 3 -1 5 -18 5 -16 0 -22 -2 -12 -5z"/>
<path d="M4458 2883 c6 -2 18 -2 25 0 6 3 1 5 -13 5 -14 0 -19 -2 -12 -5z"/>
<path d="M3015 2770 c3 -5 13 -10 21 -10 8 0 12 5 9 10 -3 6 -13 10 -21 10 -8
0 -12 -4 -9 -10z"/>
<path d="M5036 2647 c3 -10 9 -15 12 -12 3 3 0 11 -7 18 -10 9 -11 8 -5 -6z"/>
<path d="M5156 2387 c3 -10 9 -15 12 -12 3 3 0 11 -7 18 -10 9 -11 8 -5 -6z"/>
<path d="M4675 1367 c-8 -20 -15 -53 -14 -74 0 -44 9 -29 28 51 14 60 7 72
-14 23z"/>
<path d="M4703 1245 c-8 -22 6 -33 17 -15 13 20 12 30 0 30 -6 0 -13 -7 -17
-15z"/>
<path d="M4641 1083 c1 -34 2 -35 9 -13 11 36 11 50 0 50 -5 0 -10 -17 -9 -37z"/>
<path d="M4658 1036 c-15 -11 -16 -27 -12 -122 7 -137 12 -151 31 -94 11 31
13 58 8 90 -4 25 -7 66 -7 93 0 26 0 47 -1 47 -1 0 -10 -6 -19 -14z"/>
<path d="M4649 633 c0 -16 -4 -65 -7 -110 -7 -81 1 -107 12 -35 14 101 17 172
7 172 -6 0 -11 -12 -12 -27z"/>
</g>
</svg>
